Coordinates
nRows=15
nColumns=24

# SIMM Motion File Header:
name Coordinates
datacolumns 24
datarows 15
otherdata 1
range 1.49200000000000000000 1.50600000000000000000

Units are S.I. units (second, meters, Newtons, ...)
Angles are in degrees.

endheader
time	pelvis_tx	pelvis_ty	pelvis_tz	pelvis_tilt	pelvis_list	pelvis_rotation	hip_flexion_r	hip_adduction_r	hip_rotation_r	knee_angle_r	ankle_angle_r	subtalar_angle_r	mtp_angle_r	hip_flexion_l	hip_adduction_l	hip_rotation_l	knee_angle_l	ankle_angle_l	subtalar_angle_l	mtp_angle_l	lumbar_extension	lumbar_bending	lumbar_rotation
      1.49200000000000000000	      1.36421080961239640000	      0.74833900365811057000	     -0.23465289347557525000	      0.32364437918325667000	     -0.05480654197695741100	     -2.18673633341915030000	     15.77243895877703400000	      0.22743760421495454000	      5.29111738320381430000	    -47.32884619689041000000	      2.12044080571766270000	      0.00000000000006108658	     -0.00000000000076701257	      0.53383529934645679000	      5.49261969165787620000	     -3.79314837481978890000	     -2.13569418319322060000	      1.22701629302707050000	      0.00000000000000902066	     -0.00000000000018039019	     -7.65464750097013620000	     -0.53104505411819902000	      9.42886519068340690000
      1.49300000000000010000	      1.36461405588429210000	      0.74833014461716363000	     -0.23463469756056646000	      0.32951598668890253000	     -0.06790769018763406800	     -2.20165011063328730000	     15.85755331474176800000	      0.24182562437440475000	      5.25030899155355260000	    -47.21942082001186900000	      2.18182188792796690000	      0.00000000000006107672	     -0.00000000000076825697	      0.48329876721513981000	      5.48025302954633540000	     -3.79555640050910800000	     -2.12384825900677800000	      1.25842699308322150000	      0.00000000000000889441	     -0.00000000000018067763	     -7.66079856870932030000	     -0.51736066174981077000	      9.46649407427053010000
      1.49400000000000000000	      1.36501755062868480000	      0.74832069486916974000	     -0.23461601813305644000	      0.33539649666744703000	     -0.08094038910799890300	     -2.21655396435068040000	     15.94233166872058800000	      0.25607019513361351000	      5.20831938272243900000	    -47.10900003383191100000	      2.24261972769945750000	      0.00000000000006106804	     -0.00000000000076950152	      0.43252471118421382000	      5.46794594548282030000	     -3.79804654023337920000	     -2.11165385314768090000	      1.28968584067586310000	      0.00000000000000874136	     -0.00000000000018094653	     -7.66683654713081000000	     -0.50383482782754219000	      9.50370510062698060000
      1.49500000000000010000	      1.36542129493392440000	      0.74831065235689909000	     -0.23459688643235133000	      0.34128209275905586000	     -0.09390601374831511500	     -2.23144117080694130000	     16.02677024321208800000	      0.27017181791064804000	      5.16517917774129830000	    -46.99758050152232200000	      2.30281677124146270000	      0.00000000000006106066	     -0.00000000000077074517	      0.38152084744696413000	      5.45569917932270340000	     -3.80060559279764740000	     -2.09911732829630320000	      1.32079400287383940000	      0.00000000000000859449	     -0.00000000000018122506	     -7.67275880008264720000	     -0.49045546227709630000	      9.54047460586404840000
      1.49600000000000000000	      1.36582528999136650000	      0.74830001505335475000	     -0.23457733384197141000	      0.34716897222898646000	     -0.10680589031639981000	     -2.24630507206237250000	     16.11086523761954200000	      0.28413092255038891000	      5.12091963440174160000	    -46.88515898615161600000	      2.36239558679876050000	      0.00000000000006105160	     -0.00000000000077198967	      0.33029499525503070000	      5.44351346597941800000	     -3.80322030082919320000	     -2.08624522426885940000	      1.35175274091622950000	      0.00000000000000847451	     -0.00000000000018155400	     -7.67856263393440840000	     -0.47721052697938648000	      9.57678005541353270000
      1.49700000000000010000	      1.36622953710158450000	      0.74828878097369855000	     -0.23455739185495914000	      0.35305335266174392000	     -0.11964129311118492000	     -2.26113908126935930000	     16.19461282680741500000	      0.29794786728248290000	      5.07557261738113570000	    -46.77173236391027400000	      2.42133891564005090000	      0.00000000000006104180	     -0.00000000000077323720	      0.27885506387070430000	      5.43138953630218690000	     -3.80587738061592160000	     -2.07304424712142450000	      1.38256340677881930000	      0.00000000000000835393	     -0.00000000000018188207	     -7.68424530260940220000	     -0.46408805007042625000	      9.61260003877743860000
      1.49800000000000000000	      1.36663403768046640000	      0.74827694818713109000	     -0.23453709203920459000	      0.35893147865504343000	     -0.13241344141797401000	     -2.27593668794022050000	     16.27800915965613600000	      0.31162293867421037000	      5.02917056836925890000	    -46.65729763733705900000	      2.47962972304614750000	      0.00000000000006103063	     -0.00000000000077448523	      0.22720903951939650000	      5.41932811796242840000	     -3.80856355194401800000	     -2.05952125825449530000	      1.41322743973560590000	      0.00000000000000821798	     -0.00000000000018220504	     -7.68980401261691690000	     -0.45107614024608106000	      9.64791426427182590000
      1.49900000000000010000	      1.36703879326519990000	      0.74826451482872314000	     -0.23451646600278722000	      0.36479962851376041000	     -0.14512349640521799000	     -2.29069146321569670000	     16.36105035761542900000	      0.32515635157816281000	      4.98174647619649050000	    -46.54185194854586900000	      2.53725124929839070000	      0.00000000000006101890	     -0.00000000000077573365	      0.17536497234136697000	      5.40732993634888800000	     -3.81126556793536200000	     -2.04568326351735230000	      1.44374636292131740000	      0.00000000000000807628	     -0.00000000000018254999	     -7.69523592808484210000	     -0.43816300107185491000	      9.68270355376531460000
      1.50000000000000000000	      1.36744380552011260000	      0.74825147911115730000	     -0.23449554535936207000	      0.37065412091588645000	     -0.15777255807667798000	     -2.30539706511318920000	     16.44373251328393700000	      0.33854824913067988000	      4.93333384692578040000	    -46.42539259242628400000	      2.59418706051321470000	      0.00000000000006100771	     -0.00000000000077698147	      0.12333096337875418000	      5.39539571542606830000	     -3.81397024470890990000	     -2.03153740235396850000	      1.47412178148647670000	      0.00000000000000794508	     -0.00000000000018290595	     -7.70053817577599450000	     -0.42533694522587928000	      9.71694983734902000000
      1.50100000000000010000	      1.36784907624195150000	      0.74823783933627663000	     -0.23447436169387595000	      0.37649132137506502000	     -0.17036166260498548000	     -2.32004724356411170000	     16.52605168921010700000	      0.35179870311497774000	      4.88396667350840550000	    -46.30791702940518900000	      2.65042109705730010000	      0.00000000000006099670	     -0.00000000000077822896	      0.07111515183834667100	      5.38352617830267730000	     -3.81666449103259840000	     -2.01709093731715190000	      1.50435538887225580000	      0.00000000000000781160	     -0.00000000000018327079	     -7.70570785009484370000	     -0.41258640817637954000	      9.75063614704014900000
      1.50200000000000000000	      1.36825460736354710000	      0.74822359390680093000	     -0.23445294652916765000	      0.38230764834852160000	     -0.18289178026279260000	     -2.33463584490779350000	     16.60800391713654600000	      0.36490771477998440000	      4.83367940414187560000	    -46.18942289666411200000	      2.70593771343538550000	      0.00000000000006098719	     -0.00000000000077947664	      0.01872570275376303500	      5.37172204763628880000	     -3.81933533692641310000	     -2.00235124372054950000	      1.53444896314346660000	      0.00000000000000767853	     -0.00000000000018369297	     -7.71074201844399540000	     -0.39989996072390416000	      9.78374660715419790000
      1.50300000000000010000	      1.36866040095629840000	      0.74820874133744286000	     -0.23443133129264412000	      0.38809957901144032000	     -0.19536381392915753000	     -2.34915681595097190000	     16.68958519765096300000	      0.37787521607604224000	      4.78250690959462780000	    -46.06990801818184900000	      2.76072171164464430000	      0.00000000000006098002	     -0.00000000000078072463	     -0.03382920503718204300	      5.35998404597218590000	     -3.82196995792426990000	     -1.98732579908345360000	      1.56440435334077500000	      0.00000000000000755491	     -0.00000000000018417205	     -7.71563772677734510000	     -0.38726632055726296000	      9.81626642210400570000
      1.50400000000000000000	      1.36906645923234760000	      0.74819328026544119000	     -0.23440954728272156000	      0.39386365487357938000	     -0.20777859790035769000	     -2.36360420789003460000	     16.77079150000058800000	      0.39070107116262903000	      4.73048445026735550000	    -45.94937041454501500000	      2.81475837323698120000	      0.00000000000006097331	     -0.00000000000078196958	     -0.08654139070713495800	      5.34831289587229190000	     -3.82455569870282600000	     -1.97202217282361200000	      1.59422347349097240000	      0.00000000000000745025	     -0.00000000000018472778	     -7.72039200509453050000	     -0.37467436341120980000	      9.84818186366123530000
      1.50500000000000010000	      1.36947278454664520000	      0.74817720946105037000	     -0.23438762563520224000	      0.39959648740231152000	     -0.22013689669346145000	     -2.37797218023099030000	     16.85161876189483700000	      0.40338507790434325000	      4.67764764325762790000	    -45.82780831275126600000	      2.86803349135228690000	      0.00000000000006096661	     -0.00000000000078321257	     -0.13940268323729854000	      5.33670932001816570000	     -3.82708009788765400000	     -1.95644801609113680000	      1.62390829863281750000	      0.00000000000000735558	     -0.00000000000018528204	     -7.72500187294769880000	     -0.36211313424343083000	      9.87948025819816420000
      1.50600000000000000000	      1.36987937939890210000	      0.74816052783800457000	     -0.23436559728967266000	      0.40529476364539546000	     -0.23243940385058576000	     -2.39225500470999020000	     16.93206288930322900000	      0.41592696936420326000	      4.62403242942535900000	    -45.70522015601437000000	      2.92053340275138900000	      0.00000000000006096193	     -0.00000000000078445532	     -0.19240493321863361000	      5.32517404131901630000	     -3.82953091286794580000	     -1.94061105160410260000	      1.65346086085780760000	      0.00000000000000726261	     -0.00000000000018583150	     -7.72946434495055890000	     -0.34957185841441979000	      9.91014997392495720000
